<?xml version="1.0" encoding="utf-8"?>
<!-- Generator: Adobe Illustrator 24.1.1, SVG Export Plug-In . SVG Version: 6.00 Build 0)  -->
<svg version="1.1" id="Слой_1" xmlns="http://www.w3.org/2000/svg" xmlns:xlink="http://www.w3.org/1999/xlink" x="0px" y="0px"
	 viewBox="0 0 32 32" style="enable-background:new 0 0 32 32;" xml:space="preserve">
<style type="text/css">
	.st0{opacity:0.36;fill:#FFFFFF;}
	.st1{fill:#FFFFFF;}
</style>
<g>
	<polygon class="st0" points="16,1.77 20.62,11.14 30.96,12.64 23.48,19.93 25.25,30.23 16,25.37 6.75,30.23 8.52,19.93 1.04,12.64 
		11.38,11.14 	"/>
	<path class="st1" d="M16,6.29l2.83,5.73l0.47,0.94l1.04,0.15l6.33,0.92l-4.58,4.46l-0.75,0.73l0.18,1.04l1.08,6.3l-5.66-2.97
		L16,23.11l-0.93,0.49l-5.66,2.97l1.08-6.3l0.18-1.04L9.92,18.5l-4.58-4.46l6.33-0.92l1.04-0.15l0.47-0.94L16,6.29 M16,1.77
		l-4.62,9.37l-10.34,1.5l7.48,7.29L6.75,30.23L16,25.37l9.25,4.86l-1.77-10.29l7.48-7.29l-10.34-1.5L16,1.77L16,1.77z"/>
</g>
</svg>
