<?xml version="1.0" encoding="utf-8"?>
<!-- Generator: Adobe Illustrator 24.1.1, SVG Export Plug-In . SVG Version: 6.00 Build 0)  -->
<svg version="1.1" id="Слой_1" xmlns="http://www.w3.org/2000/svg" xmlns:xlink="http://www.w3.org/1999/xlink" x="0px" y="0px"
	 viewBox="0 0 32 32" style="enable-background:new 0 0 32 32;" xml:space="preserve">
<style type="text/css">
	.st0{fill:#FFFFFF;}
</style>
<path class="st0" d="M16.71,8c-3.47,0-6.29,2.82-6.29,6.29c0,1.68,0.66,3.2,1.74,4.33L8,22.77l0.98,0.98l4.23-4.23
	c1,0.67,2.21,1.07,3.5,1.07c3.47,0,6.29-2.82,6.29-6.29S20.18,8,16.71,8z M16.71,19.21c-2.71,0-4.91-2.2-4.91-4.91
	s2.2-4.91,4.91-4.91c2.71,0,4.91,2.2,4.91,4.91S19.41,19.21,16.71,19.21z"/>
</svg>
